<svg xmlns="http://www.w3.org/2000/svg" width="130" height="143.526" viewBox="0 0 130 143.526"><defs><style>.a{fill:#a0175a;}.b{fill:#2d2c5e;}.c{fill:#302c62;}</style></defs><g transform="translate(-454 -22)"><path class="a" d="M1137.436,282.465a3.49,3.49,0,0,1-3.4-4.315h-.154l-.833,1.45h.154a3.49,3.49,0,0,0,3.4,4.315l31.362-.074,5.281,4.916a3.435,3.435,0,0,1,.336,2.709,3.473,3.473,0,0,0,.5-4.16l-5.281-4.916Z" transform="translate(-675 -131.517)"/><path class="a" d="M1249.619,282.465a3.489,3.489,0,0,0,3.4-4.315h.155l.833,1.45h-.155a3.489,3.489,0,0,1-3.4,4.315l-31.362-.074-5.281,4.916a3.435,3.435,0,0,0-.336,2.709,3.473,3.473,0,0,1-.5-4.16l5.281-4.916Z" transform="translate(-675 -131.517)"/><g transform="translate(-675 -131.517)"><path class="a" d="M1149.843,269.639l2.2-14.585h4.639l-4.129,23.207h-4.7l-2.709-13.675-2.678,13.675h-4.718l-4.144-23.207h4.67l2.184,14.568,2.725-14.568h3.937Z"/><path class="a" d="M1169.384,270.546h-6.057v4h7.2v3.714h-11.715V259.692h11.731v3.762h-7.22V266.8h6.057Z"/><path class="a" d="M1172.619,278.261V259.692h6.312a8.031,8.031,0,0,1,4.964,1.316,4.52,4.52,0,0,1,1.714,3.817,4.759,4.759,0,0,1-.622,2.47,3.66,3.66,0,0,1-1.833,1.546,3.552,3.552,0,0,1,2.025,1.459,4.647,4.647,0,0,1,.716,2.637,4.853,4.853,0,0,1-1.609,4.049,7.718,7.718,0,0,1-4.846,1.275Zm4.51-10.854h2.168a1.669,1.669,0,0,0,1.8-1.913,2.248,2.248,0,0,0-.446-1.57,1.81,1.81,0,0,0-1.371-.47h-2.152Zm0,3.139v4h2.311a1.762,1.762,0,0,0,1.945-1.92q0-2.016-1.626-2.081Z"/><path class="a" d="M1204.735,270.531a8.68,8.68,0,0,1-2.232,6.009,7.879,7.879,0,0,1-5.8,2.04,7.309,7.309,0,0,1-6.033-2.59q-2.1-2.59-2.1-7.388v-3.9q0-4.783,2.168-7.372a8.573,8.573,0,0,1,11.786-.47,9.635,9.635,0,0,1,2.24,6.088h-4.7a6.246,6.246,0,0,0-.758-3.387,2.984,2.984,0,0,0-2.541-.932,2.842,2.842,0,0,0-2.662,1.315,9.189,9.189,0,0,0-.829,4.327v4.383q0,3.459.773,4.75a2.841,2.841,0,0,0,2.654,1.291,3.067,3.067,0,0,0,2.55-.9,5.928,5.928,0,0,0,.8-3.259Z"/><path class="a" d="M1221.71,269.351a11.741,11.741,0,0,1-.925,4.806,7.352,7.352,0,0,1-2.63,3.22,6.814,6.814,0,0,1-3.873,1.139,6.963,6.963,0,0,1-3.881-1.115,7.308,7.308,0,0,1-2.662-3.22,11.649,11.649,0,0,1-.948-4.83v-.717a11.792,11.792,0,0,1,.933-4.837,7.333,7.333,0,0,1,2.638-3.228,6.872,6.872,0,0,1,3.888-1.131,6.65,6.65,0,0,1,5.229,2.318,9.745,9.745,0,0,1,2.215,6.193Zm-4.51-.749a8.537,8.537,0,0,0-.774-4.04,2.4,2.4,0,0,0-4.375,0,8.772,8.772,0,0,0-.749,4.04v.734a8.444,8.444,0,0,0,.789,4.056,2.422,2.422,0,0,0,2.191,1.41,2.358,2.358,0,0,0,2.129-1.426,8.521,8.521,0,0,0,.789-3.961Z"/><path class="a" d="M1238.493,278.261h-4.511l-5.228-11.523v11.523h-4.51V259.692h4.51l5.228,11.54v-11.54h4.511Z"/><path class="a" d="M1252.1,271.041h-6.169v7.22h-4.511V259.692h11.3v3.762h-6.79V267.3h6.169Z"/></g><g transform="translate(-675 -131.517)"><path class="b" d="M1174.477,248.451a4.059,4.059,0,0,1-1.044,2.809,3.683,3.683,0,0,1-2.713.955A3.421,3.421,0,0,1,1167.9,251a5.368,5.368,0,0,1-.979-3.455v-1.827a5.224,5.224,0,0,1,1.014-3.447,4.008,4.008,0,0,1,5.512-.22,4.509,4.509,0,0,1,1.048,2.847h-2.2a2.918,2.918,0,0,0-.354-1.584,1.4,1.4,0,0,0-1.188-.435,1.329,1.329,0,0,0-1.246.615,4.293,4.293,0,0,0-.387,2.023v2.051a4.733,4.733,0,0,0,.361,2.221,1.33,1.33,0,0,0,1.242.6,1.435,1.435,0,0,0,1.192-.42,2.781,2.781,0,0,0,.373-1.524Z"/><path class="b" d="M1182.416,247.9a5.5,5.5,0,0,1-.432,2.248,3.438,3.438,0,0,1-1.231,1.506,3.187,3.187,0,0,1-1.811.533,3.261,3.261,0,0,1-1.815-.521,3.414,3.414,0,0,1-1.245-1.506,5.462,5.462,0,0,1-.444-2.26v-.335a5.512,5.512,0,0,1,.436-2.262,3.438,3.438,0,0,1,1.235-1.51,3.206,3.206,0,0,1,1.818-.529,3.11,3.11,0,0,1,2.446,1.085,4.558,4.558,0,0,1,1.036,2.9Zm-2.109-.35a4,4,0,0,0-.362-1.89,1.124,1.124,0,0,0-2.047,0,4.117,4.117,0,0,0-.351,1.89v.343a3.933,3.933,0,0,0,.37,1.9,1.132,1.132,0,0,0,1.025.66,1.1,1.1,0,0,0,.995-.667,4,4,0,0,0,.37-1.853Zm-.963-7.156h2.371l-2.072,2.311h-1.76Z"/><path class="b" d="M1186.472,249.077h-.754v2.989H1183.6v-8.684h3.146a3.331,3.331,0,0,1,2.232.677,2.4,2.4,0,0,1,.794,1.931,3.3,3.3,0,0,1-.306,1.51,2.365,2.365,0,0,1-1.013.988l1.588,3.488v.09h-2.274Zm-.754-1.752h.991q.955,0,.955-1.1t-.91-1.089h-1.036Z"/><path class="b" d="M1191.055,252.066v-8.684h2.55a3.511,3.511,0,0,1,1.908.528,3.6,3.6,0,0,1,1.315,1.488,4.8,4.8,0,0,1,.473,2.158v.342a4.418,4.418,0,0,1-1.016,2.986,3.4,3.4,0,0,1-2.71,1.182Zm2.11-6.926v5.189h.462a1.345,1.345,0,0,0,1.189-.523,3.323,3.323,0,0,0,.376-1.777v-.478a3.511,3.511,0,0,0-.362-1.858,1.336,1.336,0,0,0-1.188-.553Z"/><path class="b" d="M1205.256,247.9a5.493,5.493,0,0,1-.432,2.248,3.429,3.429,0,0,1-1.23,1.506,3.19,3.19,0,0,1-1.812.533,3.263,3.263,0,0,1-1.815-.521,3.412,3.412,0,0,1-1.245-1.506,5.46,5.46,0,0,1-.443-2.26v-.335a5.528,5.528,0,0,1,.435-2.262,3.438,3.438,0,0,1,1.235-1.51,3.208,3.208,0,0,1,1.818-.529,3.109,3.109,0,0,1,2.446,1.085,4.558,4.558,0,0,1,1.036,2.9Zm-2.109-.35a4,4,0,0,0-.362-1.89,1.124,1.124,0,0,0-2.047,0,4.117,4.117,0,0,0-.35,1.89v.343a3.931,3.931,0,0,0,.37,1.9,1.131,1.131,0,0,0,1.024.66,1.1,1.1,0,0,0,.995-.667,4,4,0,0,0,.37-1.853Z"/><path class="b" d="M1206.441,252.066v-8.684h2.952a3.755,3.755,0,0,1,2.322.614,2.114,2.114,0,0,1,.8,1.785,2.23,2.23,0,0,1-.291,1.156,1.711,1.711,0,0,1-.857.723,1.657,1.657,0,0,1,.947.682,2.17,2.17,0,0,1,.335,1.233,2.269,2.269,0,0,1-.753,1.894,3.6,3.6,0,0,1-2.266.6Zm2.11-5.076h1.014a.782.782,0,0,0,.843-.9,1.047,1.047,0,0,0-.209-.734.844.844,0,0,0-.641-.221h-1.007Zm0,1.468v1.871h1.081a.824.824,0,0,0,.909-.9q0-.943-.76-.973Z"/><path class="b" d="M1218.481,250.418h-2.565l-.47,1.648h-2.109l2.869-8.684h1.976l2.9,8.684h-2.117Zm-2.1-1.588h1.632l-.827-2.8Z"/></g><g transform="translate(-675 -131.517)"><path class="b" d="M1185.368,296.894h-6.4V295.4l2.936-3.734a8.128,8.128,0,0,0,.825-1.362,2.717,2.717,0,0,0,.264-1.121,2.182,2.182,0,0,0-.249-1.133.793.793,0,0,0-.72-.41.925.925,0,0,0-.816.477,2.5,2.5,0,0,0-.3,1.342h-2.117a4.02,4.02,0,0,1,.414-1.826,3.1,3.1,0,0,1,1.162-1.287,3.192,3.192,0,0,1,1.7-.458,3.048,3.048,0,0,1,2.255.8,3.08,3.08,0,0,1,.8,2.277,4.342,4.342,0,0,1-.443,1.86,11.415,11.415,0,0,1-1.606,2.322l-1.394,1.99h3.69Z"/><path class="b" d="M1193,292.406a6.082,6.082,0,0,1-.816,3.444,2.882,2.882,0,0,1-4.645.034,5.874,5.874,0,0,1-.845-3.321v-2.05a6.066,6.066,0,0,1,.812-3.433,2.891,2.891,0,0,1,4.666-.011,5.955,5.955,0,0,1,.828,3.361Zm-2.117-2.2a5.539,5.539,0,0,0-.254-1.925.842.842,0,0,0-.79-.64q-1.007,0-1.043,2.349v2.7a5.586,5.586,0,0,0,.256,1.954.857.857,0,0,0,.8.641.817.817,0,0,0,.764-.6,5.243,5.243,0,0,0,.265-1.837Z"/><path class="b" d="M1199.063,296.894h-2.117v-8.289l-2.065.8v-1.759l3.958-1.618h.224Z"/><path class="b" d="M1206.233,292.7a2.023,2.023,0,0,1-1.468.685,2.265,2.265,0,0,1-1.949-.994,4.477,4.477,0,0,1-.713-2.658,4.709,4.709,0,0,1,.4-1.965,3.234,3.234,0,0,1,1.121-1.381,2.776,2.776,0,0,1,1.607-.493,2.623,2.623,0,0,1,1.632.544,3.489,3.489,0,0,1,1.111,1.562,6.367,6.367,0,0,1,.4,2.315v.767a6.888,6.888,0,0,1-1.219,4.335,4.2,4.2,0,0,1-3.455,1.591h-.216v-1.818h.141a2.519,2.519,0,0,0,1.86-.641A3,3,0,0,0,1206.233,292.7Zm-.932-.969q.612,0,.962-.835v-.969a3.95,3.95,0,0,0-.291-1.674q-.291-.606-.752-.607c-.3,0-.548.2-.734.6a3.443,3.443,0,0,0-.28,1.465,3.152,3.152,0,0,0,.29,1.479A.89.89,0,0,0,1205.3,291.728Z"/></g><path class="c" d="M1167.042,229.91,1129,164.019a3.55,3.55,0,0,1,.969-.133h13.114l23.959,41.5a3.485,3.485,0,0,0,6.037,0l5.26-9.11,7.08,12.263-12.34,21.373A3.485,3.485,0,0,1,1167.042,229.91Zm-.433-76.26-.077-.133h-21.548l23.959,41.5a3.485,3.485,0,0,0,6.037,0l5.26-9.11-15.681-27.16A3.49,3.49,0,0,1,1166.609,153.65ZM1194,171.091l-12.572,21.776L1194,214.643l12.572-21.776Zm50.917-7.205-23.959,41.5a3.485,3.485,0,0,1-6.037,0l-5.26-9.11-7.08,12.263,12.34,21.373a3.485,3.485,0,0,0,6.037,0L1259,164.019a3.55,3.55,0,0,0-.969-.133Zm-23.526-10.236a3.49,3.49,0,0,1,2.05,5.1L1207.76,185.9l5.26,9.11a3.485,3.485,0,0,0,6.037,0l23.959-41.5h-21.548Zm-17.445,3.718-7.258,11.87,7.08,11.58,14.338-23.45Zm-34.052,0,14.338,23.45,7.08-11.58-7.258-11.87Z" transform="translate(-675 -131.517)"/></g></svg>