<svg xmlns="http://www.w3.org/2000/svg" xmlns:xlink="http://www.w3.org/1999/xlink" width="128" height="128" viewBox="0 0 128 128"><defs><style>.a{fill:url(#a);}.b{fill:#fff;}.c{fill:url(#b);}</style><linearGradient id="a" x1="0.5" y1="0.943" x2="0.5" y2="-0.057" gradientUnits="objectBoundingBox"><stop offset="0" stop-color="#a0175a"/><stop offset="1" stop-color="#302c62"/></linearGradient><linearGradient id="b" y1="0.34" y2="1.34" xlink:href="#a"/></defs><g transform="translate(-1177 -420)"><circle class="a" cx="64" cy="64" r="64" transform="translate(1177 420)"/><ellipse class="b" cx="60.178" cy="60.178" rx="60.178" ry="60.178" transform="translate(1180.822 423.822)"/><ellipse class="c" cx="55.811" cy="55.811" rx="55.811" ry="55.811" transform="translate(1185.189 428.189)"/><path class="b" d="M3983.176-716.776,3958.5-752.75a2.71,2.71,0,0,1,.628-.073h8.506l15.541,22.656a2.491,2.491,0,0,0,3.917,0l3.411-4.974,4.592,6.695-8,11.669A2.491,2.491,0,0,1,3983.176-716.776Zm-.281-41.634-.05-.073h-13.977l15.542,22.656a2.49,2.49,0,0,0,3.916,0l3.412-4.974-10.172-14.828A1.83,1.83,0,0,1,3982.9-758.41Zm17.767,9.522L3992.507-737l8.155,11.889L4008.817-737Zm33.027-3.934-15.541,22.656a2.49,2.49,0,0,1-3.916,0l-3.413-4.974-4.592,6.695,8,11.669a2.49,2.49,0,0,0,3.916,0l24.676-35.973a2.71,2.71,0,0,0-.628-.073Zm-15.26-5.588a1.829,1.829,0,0,1,1.33,2.782L4009.587-740.8l3.412,4.974a2.49,2.49,0,0,0,3.916,0l15.541-22.656h-13.977Zm-11.315,2.03-4.708,6.48,4.592,6.322,9.3-12.8Zm-22.088,0,9.3,12.8,4.592-6.322-4.708-6.48Z" transform="translate(-2759.662 1220.885)"/></g></svg>